<svg xmlns="http://www.w3.org/2000/svg" viewBox="0 0 240 64" width="240" height="64">
  <defs>
    <linearGradient id="taegeuk" x1="0%" y1="0%" x2="100%" y2="100%">
      <stop offset="0%" stop-color="#CD2E3A"/>
      <stop offset="100%" stop-color="#0047A0"/>
    </linearGradient>
  </defs>
  <!-- Taegeuk-inspired mark -->
  <g transform="translate(8,8)">
    <circle cx="24" cy="24" r="22" fill="none" stroke="#003478" stroke-width="2.5"/>
    <path d="M24,2 A22,22 0 0,1 24,46 A11,11 0 0,1 24,24 A11,11 0 0,0 24,2 Z" fill="#CD2E3A"/>
    <path d="M24,46 A22,22 0 0,1 24,2 A11,11 0 0,1 24,24 A11,11 0 0,0 24,46 Z" fill="#0047A0"/>
  </g>
  <!-- Wordmark -->
  <text x="64" y="32" font-family="'Noto Sans KR','Inter',system-ui,sans-serif" font-size="22" font-weight="800" fill="#0F172A">DreamKorea</text>
  <text x="64" y="52" font-family="'Noto Sans KR','Inter',system-ui,sans-serif" font-size="11" font-weight="600" fill="#64748B" letter-spacing="2">SMART CLASS</text>
</svg>
